<svg width="190" height="48" viewBox="0 0 190 48" fill="none" xmlns="http://www.w3.org/2000/svg">
<rect width="190" height="48" rx="24" fill="#191919"/>
<path d="M58.222 26.544V26.508C58.222 25.668 58.012 25.014 57.592 24.546C57.172 24.066 56.596 23.688 55.864 23.412C56.092 23.292 56.302 23.148 56.494 22.98C56.698 22.812 56.872 22.62 57.016 22.404C57.172 22.176 57.292 21.924 57.376 21.648C57.472 21.372 57.52 21.054 57.52 20.694V20.658C57.52 19.662 57.148 18.87 56.404 18.282C55.672 17.694 54.658 17.4 53.362 17.4H47.512V30H53.506C54.214 30 54.856 29.928 55.432 29.784C56.02 29.64 56.518 29.424 56.926 29.136C57.346 28.848 57.664 28.488 57.88 28.056C58.108 27.624 58.222 27.12 58.222 26.544ZM54.766 21.162C54.766 21.63 54.586 21.972 54.226 22.188C53.866 22.392 53.38 22.494 52.768 22.494H50.212V19.83H52.948C53.536 19.83 53.986 19.944 54.298 20.172C54.61 20.388 54.766 20.706 54.766 21.126V21.162ZM55.468 26.202C55.468 26.67 55.294 27.018 54.946 27.246C54.598 27.462 54.118 27.57 53.506 27.57H50.212V24.798H53.416C54.136 24.798 54.658 24.924 54.982 25.176C55.306 25.416 55.468 25.746 55.468 26.166V26.202ZM71.2842 24.51V17.4H68.5122V24.618C68.5122 25.626 68.2722 26.382 67.7922 26.886C67.3122 27.39 66.6462 27.642 65.7942 27.642C64.9422 27.642 64.2762 27.384 63.7962 26.868C63.3162 26.34 63.0762 25.56 63.0762 24.528V17.4H60.3042V24.6C60.3042 26.46 60.7902 27.858 61.7622 28.794C62.7342 29.73 64.0662 30.198 65.7582 30.198C66.5982 30.198 67.3602 30.084 68.0442 29.856C68.7282 29.616 69.3102 29.262 69.7902 28.794C70.2702 28.314 70.6362 27.72 70.8882 27.012C71.1522 26.304 71.2842 25.47 71.2842 24.51ZM85.2677 17.4H82.1177L79.0577 22.458L76.0517 17.4H72.8117L77.6537 25.032V30H80.4257V24.978L85.2677 17.4ZM103.585 30V17.4H100.849V25.158L94.945 17.4H92.389V30H95.125V21.99L101.227 30H103.585ZM119.444 23.7V23.664C119.444 22.764 119.276 21.924 118.94 21.144C118.616 20.352 118.154 19.668 117.554 19.092C116.966 18.504 116.264 18.042 115.448 17.706C114.632 17.358 113.738 17.184 112.766 17.184C111.794 17.184 110.894 17.358 110.066 17.706C109.25 18.042 108.542 18.51 107.942 19.11C107.354 19.698 106.892 20.388 106.556 21.18C106.22 21.96 106.052 22.8 106.052 23.7V23.736C106.052 24.636 106.214 25.482 106.538 26.274C106.874 27.054 107.336 27.738 107.924 28.326C108.524 28.902 109.232 29.364 110.048 29.712C110.864 30.048 111.758 30.216 112.73 30.216C113.702 30.216 114.596 30.048 115.412 29.712C116.24 29.364 116.948 28.896 117.536 28.308C118.136 27.708 118.604 27.018 118.94 26.238C119.276 25.446 119.444 24.6 119.444 23.7ZM116.546 23.736C116.546 24.276 116.45 24.786 116.258 25.266C116.078 25.734 115.82 26.148 115.484 26.508C115.16 26.868 114.764 27.15 114.296 27.354C113.828 27.558 113.318 27.66 112.766 27.66C112.202 27.66 111.686 27.558 111.218 27.354C110.762 27.138 110.36 26.85 110.012 26.49C109.676 26.13 109.412 25.71 109.22 25.23C109.04 24.75 108.95 24.24 108.95 23.7V23.664C108.95 23.124 109.04 22.62 109.22 22.152C109.412 21.672 109.67 21.252 109.994 20.892C110.33 20.532 110.726 20.25 111.182 20.046C111.65 19.842 112.166 19.74 112.73 19.74C113.282 19.74 113.792 19.848 114.26 20.064C114.728 20.268 115.13 20.55 115.466 20.91C115.814 21.27 116.078 21.69 116.258 22.17C116.45 22.65 116.546 23.16 116.546 23.7V23.736ZM140.047 17.4H137.149L134.539 25.932L131.713 17.364H129.337L126.511 25.932L123.901 17.4H120.931L125.233 30.09H127.645L130.489 21.846L133.333 30.09H135.745L140.047 17.4Z" fill="white"/>
</svg>
