<svg width="413" height="170" viewBox="0 0 413 170" fill="none" xmlns="http://www.w3.org/2000/svg">
<g filter="url(#filter0_d)">
<rect x="32" y="32" width="349" height="106" rx="12" fill="white"/>
</g>
<path d="M68.852 98.682C68.852 97.794 68.69 96.966 68.366 96.198C68.042 95.43 67.58 94.764 66.98 94.2C66.392 93.636 65.684 93.198 64.856 92.886C64.04 92.562 63.14 92.4 62.156 92.4H57.782V105H62.156C63.14 105 64.04 104.838 64.856 104.514C65.684 104.19 66.392 103.746 66.98 103.182C67.58 102.618 68.042 101.952 68.366 101.184C68.69 100.404 68.852 99.57 68.852 98.682ZM67.376 98.718C67.376 99.426 67.25 100.08 66.998 100.68C66.758 101.28 66.41 101.808 65.954 102.264C65.51 102.708 64.964 103.056 64.316 103.308C63.668 103.56 62.948 103.686 62.156 103.686H59.204V93.714H62.156C62.948 93.714 63.668 93.846 64.316 94.11C64.964 94.362 65.51 94.716 65.954 95.172C66.41 95.616 66.758 96.144 66.998 96.756C67.25 97.368 67.376 98.022 67.376 98.718ZM72.4561 100.86H79.8361C79.8481 100.776 79.8541 100.698 79.8541 100.626C79.8541 100.554 79.8541 100.488 79.8541 100.428C79.8541 99.744 79.7581 99.102 79.5661 98.502C79.3741 97.902 79.0921 97.38 78.7201 96.936C78.3481 96.492 77.8921 96.144 77.3521 95.892C76.8121 95.628 76.2001 95.496 75.5161 95.496C74.8681 95.496 74.2681 95.622 73.7161 95.874C73.1761 96.126 72.7081 96.474 72.3121 96.918C71.9161 97.35 71.6041 97.866 71.3761 98.466C71.1601 99.054 71.0521 99.684 71.0521 100.356C71.0521 101.076 71.1721 101.736 71.4121 102.336C71.6641 102.936 72.0001 103.452 72.4201 103.884C72.8401 104.304 73.3321 104.634 73.8961 104.874C74.4601 105.102 75.0601 105.216 75.6961 105.216C76.5841 105.216 77.3281 105.06 77.9281 104.748C78.5281 104.424 79.0621 103.998 79.5301 103.47L78.6661 102.696C78.2821 103.092 77.8561 103.41 77.3881 103.65C76.9321 103.89 76.3801 104.01 75.7321 104.01C75.3241 104.01 74.9341 103.944 74.5621 103.812C74.1901 103.668 73.8541 103.464 73.5541 103.2C73.2541 102.924 73.0081 102.594 72.8161 102.21C72.6241 101.814 72.5041 101.364 72.4561 100.86ZM72.4561 99.834C72.5041 99.378 72.6121 98.958 72.7801 98.574C72.9481 98.19 73.1641 97.86 73.4281 97.584C73.6921 97.296 73.9981 97.074 74.3461 96.918C74.6941 96.75 75.0721 96.666 75.4801 96.666C75.9481 96.666 76.3561 96.756 76.7041 96.936C77.0641 97.104 77.3641 97.332 77.6041 97.62C77.8561 97.908 78.0481 98.244 78.1801 98.628C78.3241 99.012 78.4141 99.414 78.4501 99.834H72.4561ZM88.6704 102.39V102.354C88.6704 101.934 88.5804 101.58 88.4004 101.292C88.2324 101.004 88.0044 100.758 87.7164 100.554C87.4284 100.35 87.1044 100.182 86.7444 100.05C86.3964 99.918 86.0424 99.798 85.6824 99.69C85.3704 99.594 85.0704 99.498 84.7824 99.402C84.4944 99.306 84.2364 99.198 84.0084 99.078C83.7924 98.958 83.6184 98.82 83.4864 98.664C83.3544 98.496 83.2884 98.304 83.2884 98.088V98.052C83.2884 97.668 83.4504 97.35 83.7744 97.098C84.0984 96.834 84.5364 96.702 85.0884 96.702C85.5444 96.702 86.0064 96.786 86.4744 96.954C86.9544 97.11 87.4104 97.326 87.8424 97.602L88.4724 96.558C87.9924 96.246 87.4584 96 86.8704 95.82C86.2824 95.628 85.7004 95.532 85.1244 95.532C84.6684 95.532 84.2424 95.598 83.8464 95.73C83.4624 95.85 83.1264 96.03 82.8384 96.27C82.5624 96.498 82.3464 96.78 82.1904 97.116C82.0344 97.44 81.9564 97.8 81.9564 98.196V98.232C81.9564 98.664 82.0464 99.024 82.2264 99.312C82.4184 99.6 82.6584 99.84 82.9464 100.032C83.2464 100.224 83.5764 100.386 83.9364 100.518C84.3084 100.638 84.6744 100.752 85.0344 100.86C85.3344 100.944 85.6224 101.034 85.8984 101.13C86.1864 101.226 86.4384 101.34 86.6544 101.472C86.8704 101.592 87.0384 101.736 87.1584 101.904C87.2904 102.072 87.3564 102.27 87.3564 102.498V102.534C87.3564 102.99 87.1764 103.35 86.8164 103.614C86.4564 103.878 85.9944 104.01 85.4304 104.01C84.8784 104.01 84.3264 103.908 83.7744 103.704C83.2344 103.5 82.7124 103.206 82.2084 102.822L81.5064 103.812C82.0344 104.232 82.6404 104.568 83.3244 104.82C84.0084 105.06 84.6864 105.18 85.3584 105.18C85.8264 105.18 86.2584 105.12 86.6544 105C87.0624 104.868 87.4104 104.682 87.6984 104.442C87.9984 104.202 88.2324 103.914 88.4004 103.578C88.5804 103.23 88.6704 102.834 88.6704 102.39ZM92.8653 93.66V92.13H91.2813V93.66H92.8653ZM92.7573 105V95.694H91.3713V105H92.7573ZM104.83 103.38V95.694H103.444V97.368C103.252 97.116 103.036 96.876 102.796 96.648C102.556 96.42 102.286 96.222 101.986 96.054C101.698 95.886 101.368 95.754 100.996 95.658C100.636 95.55 100.24 95.496 99.8078 95.496C99.2558 95.496 98.7158 95.598 98.1878 95.802C97.6598 96.006 97.1918 96.3 96.7838 96.684C96.3758 97.056 96.0458 97.518 95.7938 98.07C95.5538 98.61 95.4338 99.222 95.4338 99.906C95.4338 100.59 95.5538 101.202 95.7938 101.742C96.0458 102.282 96.3758 102.744 96.7838 103.128C97.1918 103.5 97.6538 103.788 98.1698 103.992C98.6978 104.184 99.2438 104.28 99.8078 104.28C100.66 104.28 101.38 104.088 101.968 103.704C102.556 103.32 103.054 102.858 103.462 102.318V103.416C103.462 104.508 103.156 105.33 102.544 105.882C101.932 106.446 101.11 106.728 100.078 106.728C99.4058 106.728 98.7758 106.626 98.1878 106.422C97.5998 106.218 97.0358 105.924 96.4958 105.54L95.8658 106.62C96.4898 107.052 97.1558 107.376 97.8638 107.592C98.5718 107.808 99.3158 107.916 100.096 107.916C100.816 107.916 101.464 107.82 102.04 107.628C102.628 107.436 103.126 107.148 103.534 106.764C103.954 106.392 104.272 105.924 104.488 105.36C104.716 104.796 104.83 104.136 104.83 103.38ZM103.498 99.888C103.498 100.368 103.402 100.806 103.21 101.202C103.018 101.586 102.76 101.916 102.436 102.192C102.124 102.468 101.764 102.684 101.356 102.84C100.948 102.984 100.522 103.056 100.078 103.056C99.6458 103.056 99.2318 102.984 98.8358 102.84C98.4518 102.684 98.1098 102.468 97.8098 102.192C97.5218 101.904 97.2878 101.568 97.1078 101.184C96.9398 100.788 96.8558 100.35 96.8558 99.87C96.8558 99.39 96.9398 98.958 97.1078 98.574C97.2758 98.178 97.5038 97.842 97.7918 97.566C98.0918 97.29 98.4338 97.08 98.8178 96.936C99.2138 96.792 99.6338 96.72 100.078 96.72C100.522 96.72 100.948 96.798 101.356 96.954C101.764 97.098 102.124 97.308 102.436 97.584C102.76 97.86 103.018 98.196 103.21 98.592C103.402 98.976 103.498 99.408 103.498 99.888ZM109.313 99.672C109.313 99.24 109.379 98.844 109.511 98.484C109.655 98.124 109.853 97.818 110.105 97.566C110.357 97.302 110.651 97.104 110.987 96.972C111.335 96.828 111.707 96.756 112.103 96.756C112.931 96.756 113.567 97.008 114.011 97.512C114.455 98.016 114.677 98.7 114.677 99.564V105H116.063V99.222C116.063 98.67 115.979 98.166 115.811 97.71C115.655 97.254 115.421 96.864 115.109 96.54C114.809 96.204 114.437 95.946 113.993 95.766C113.561 95.586 113.063 95.496 112.499 95.496C111.695 95.496 111.041 95.676 110.537 96.036C110.033 96.384 109.625 96.81 109.313 97.314V95.694H107.927V105H109.313V99.672ZM119.847 100.86H127.227C127.239 100.776 127.245 100.698 127.245 100.626C127.245 100.554 127.245 100.488 127.245 100.428C127.245 99.744 127.149 99.102 126.957 98.502C126.765 97.902 126.483 97.38 126.111 96.936C125.739 96.492 125.283 96.144 124.743 95.892C124.203 95.628 123.591 95.496 122.907 95.496C122.259 95.496 121.659 95.622 121.107 95.874C120.567 96.126 120.099 96.474 119.703 96.918C119.307 97.35 118.995 97.866 118.767 98.466C118.551 99.054 118.443 99.684 118.443 100.356C118.443 101.076 118.563 101.736 118.803 102.336C119.055 102.936 119.391 103.452 119.811 103.884C120.231 104.304 120.723 104.634 121.287 104.874C121.851 105.102 122.451 105.216 123.087 105.216C123.975 105.216 124.719 105.06 125.319 104.748C125.919 104.424 126.453 103.998 126.921 103.47L126.057 102.696C125.673 103.092 125.247 103.41 124.779 103.65C124.323 103.89 123.771 104.01 123.123 104.01C122.715 104.01 122.325 103.944 121.953 103.812C121.581 103.668 121.245 103.464 120.945 103.2C120.645 102.924 120.399 102.594 120.207 102.21C120.015 101.814 119.895 101.364 119.847 100.86ZM119.847 99.834C119.895 99.378 120.003 98.958 120.171 98.574C120.339 98.19 120.555 97.86 120.819 97.584C121.083 97.296 121.389 97.074 121.737 96.918C122.085 96.75 122.463 96.666 122.871 96.666C123.339 96.666 123.747 96.756 124.095 96.936C124.455 97.104 124.755 97.332 124.995 97.62C125.247 97.908 125.439 98.244 125.571 98.628C125.715 99.012 125.805 99.414 125.841 99.834H119.847ZM138.527 105V91.86H137.141V97.476C136.961 97.212 136.751 96.96 136.511 96.72C136.283 96.48 136.025 96.27 135.737 96.09C135.449 95.91 135.125 95.766 134.765 95.658C134.405 95.55 134.009 95.496 133.577 95.496C133.013 95.496 132.467 95.61 131.939 95.838C131.411 96.054 130.937 96.372 130.517 96.792C130.097 97.2 129.761 97.704 129.509 98.304C129.257 98.904 129.131 99.588 129.131 100.356C129.131 101.124 129.257 101.808 129.509 102.408C129.761 103.008 130.097 103.518 130.517 103.938C130.937 104.346 131.411 104.658 131.939 104.874C132.467 105.09 133.013 105.198 133.577 105.198C134.009 105.198 134.399 105.144 134.747 105.036C135.107 104.928 135.431 104.778 135.719 104.586C136.007 104.394 136.265 104.172 136.493 103.92C136.733 103.668 136.949 103.404 137.141 103.128V105H138.527ZM137.195 100.338C137.195 100.878 137.099 101.376 136.907 101.832C136.727 102.276 136.475 102.654 136.151 102.966C135.839 103.278 135.479 103.524 135.071 103.704C134.675 103.872 134.261 103.956 133.829 103.956C133.385 103.956 132.965 103.872 132.569 103.704C132.173 103.536 131.825 103.296 131.525 102.984C131.225 102.66 130.985 102.276 130.805 101.832C130.637 101.388 130.553 100.89 130.553 100.338C130.553 99.774 130.637 99.27 130.805 98.826C130.985 98.37 131.219 97.992 131.507 97.692C131.807 97.38 132.155 97.146 132.551 96.99C132.947 96.822 133.373 96.738 133.829 96.738C134.261 96.738 134.675 96.828 135.071 97.008C135.479 97.176 135.839 97.416 136.151 97.728C136.475 98.04 136.727 98.418 136.907 98.862C137.099 99.306 137.195 99.798 137.195 100.338ZM148.893 96.918H151.845V95.694H148.893V92.886H147.507V95.694H146.211V96.918H147.507V102.534C147.507 103.002 147.573 103.404 147.705 103.74C147.837 104.076 148.017 104.352 148.245 104.568C148.485 104.772 148.767 104.922 149.091 105.018C149.415 105.114 149.763 105.162 150.135 105.162C150.471 105.162 150.771 105.126 151.035 105.054C151.311 104.994 151.569 104.898 151.809 104.766V103.578C151.569 103.698 151.341 103.782 151.125 103.83C150.921 103.878 150.699 103.902 150.459 103.902C149.991 103.902 149.613 103.788 149.325 103.56C149.037 103.332 148.893 102.93 148.893 102.354V96.918ZM163.16 100.338C163.16 99.678 163.04 99.054 162.8 98.466C162.56 97.878 162.224 97.368 161.792 96.936C161.36 96.492 160.844 96.144 160.244 95.892C159.656 95.628 159.014 95.496 158.318 95.496C157.61 95.496 156.956 95.628 156.356 95.892C155.768 96.144 155.258 96.492 154.826 96.936C154.394 97.38 154.058 97.902 153.818 98.502C153.578 99.09 153.458 99.714 153.458 100.374C153.458 101.034 153.578 101.658 153.818 102.246C154.058 102.834 154.394 103.35 154.826 103.794C155.258 104.226 155.768 104.574 156.356 104.838C156.944 105.09 157.586 105.216 158.282 105.216C158.978 105.216 159.626 105.09 160.226 104.838C160.826 104.574 161.342 104.22 161.774 103.776C162.206 103.332 162.542 102.816 162.782 102.228C163.034 101.628 163.16 100.998 163.16 100.338ZM161.738 100.374C161.738 100.878 161.654 101.352 161.486 101.796C161.318 102.228 161.084 102.606 160.784 102.93C160.484 103.254 160.124 103.512 159.704 103.704C159.284 103.884 158.822 103.974 158.318 103.974C157.826 103.974 157.37 103.878 156.95 103.686C156.53 103.494 156.164 103.236 155.852 102.912C155.552 102.588 155.312 102.204 155.132 101.76C154.964 101.316 154.88 100.842 154.88 100.338C154.88 99.834 154.964 99.366 155.132 98.934C155.3 98.49 155.528 98.106 155.816 97.782C156.116 97.446 156.476 97.188 156.896 97.008C157.316 96.816 157.778 96.72 158.282 96.72C158.774 96.72 159.23 96.816 159.65 97.008C160.07 97.2 160.436 97.464 160.748 97.8C161.06 98.124 161.3 98.508 161.468 98.952C161.648 99.396 161.738 99.87 161.738 100.374ZM172.454 99.672C172.454 99.24 172.52 98.844 172.652 98.484C172.796 98.124 172.994 97.818 173.246 97.566C173.498 97.302 173.792 97.104 174.128 96.972C174.476 96.828 174.848 96.756 175.244 96.756C176.072 96.756 176.708 97.008 177.152 97.512C177.596 98.016 177.818 98.7 177.818 99.564V105H179.204V99.222C179.204 98.67 179.12 98.166 178.952 97.71C178.796 97.254 178.562 96.864 178.25 96.54C177.95 96.204 177.578 95.946 177.134 95.766C176.702 95.586 176.204 95.496 175.64 95.496C174.836 95.496 174.182 95.676 173.678 96.036C173.174 96.384 172.766 96.81 172.454 97.314V91.86H171.068V105H172.454V99.672ZM185.525 96.792C186.401 96.792 187.079 97.008 187.559 97.44C188.051 97.86 188.297 98.49 188.297 99.33V99.654C187.877 99.534 187.445 99.438 187.001 99.366C186.557 99.294 186.035 99.258 185.435 99.258C184.847 99.258 184.307 99.324 183.815 99.456C183.335 99.588 182.915 99.78 182.555 100.032C182.207 100.284 181.937 100.602 181.745 100.986C181.553 101.358 181.457 101.79 181.457 102.282C181.457 102.774 181.553 103.2 181.745 103.56C181.949 103.92 182.213 104.226 182.537 104.478C182.873 104.718 183.245 104.898 183.653 105.018C184.073 105.138 184.499 105.198 184.931 105.198C185.759 105.198 186.443 105.036 186.983 104.712C187.535 104.388 187.973 104.016 188.297 103.596V105H189.629V99.312C189.629 98.076 189.287 97.146 188.603 96.522C187.919 95.886 186.941 95.568 185.669 95.568C184.985 95.568 184.379 95.64 183.851 95.784C183.323 95.916 182.801 96.102 182.285 96.342L182.699 97.476C183.131 97.272 183.569 97.11 184.013 96.99C184.469 96.858 184.973 96.792 185.525 96.792ZM185.579 100.284C186.155 100.284 186.665 100.326 187.109 100.41C187.565 100.494 187.967 100.584 188.315 100.68V101.58C188.315 101.952 188.231 102.294 188.063 102.606C187.907 102.906 187.685 103.17 187.397 103.398C187.121 103.614 186.791 103.788 186.407 103.92C186.035 104.04 185.633 104.1 185.201 104.1C184.889 104.1 184.589 104.058 184.301 103.974C184.025 103.89 183.779 103.77 183.563 103.614C183.347 103.446 183.173 103.248 183.041 103.02C182.921 102.792 182.861 102.528 182.861 102.228C182.861 101.628 183.095 101.154 183.563 100.806C184.031 100.458 184.703 100.284 185.579 100.284ZM193.969 99.672C193.969 99.24 194.035 98.844 194.167 98.484C194.311 98.124 194.509 97.818 194.761 97.566C195.013 97.302 195.307 97.104 195.643 96.972C195.991 96.828 196.363 96.756 196.759 96.756C197.587 96.756 198.223 97.008 198.667 97.512C199.111 98.016 199.333 98.7 199.333 99.564V105H200.719V99.222C200.719 98.67 200.635 98.166 200.467 97.71C200.311 97.254 200.077 96.864 199.765 96.54C199.465 96.204 199.093 95.946 198.649 95.766C198.217 95.586 197.719 95.496 197.155 95.496C196.351 95.496 195.697 95.676 195.193 96.036C194.689 96.384 194.281 96.81 193.969 97.314V95.694H192.583V105H193.969V99.672ZM212.531 105V91.86H211.145V97.476C210.965 97.212 210.755 96.96 210.515 96.72C210.287 96.48 210.029 96.27 209.741 96.09C209.453 95.91 209.129 95.766 208.769 95.658C208.409 95.55 208.013 95.496 207.581 95.496C207.017 95.496 206.471 95.61 205.943 95.838C205.415 96.054 204.941 96.372 204.521 96.792C204.101 97.2 203.765 97.704 203.513 98.304C203.261 98.904 203.135 99.588 203.135 100.356C203.135 101.124 203.261 101.808 203.513 102.408C203.765 103.008 204.101 103.518 204.521 103.938C204.941 104.346 205.415 104.658 205.943 104.874C206.471 105.09 207.017 105.198 207.581 105.198C208.013 105.198 208.403 105.144 208.751 105.036C209.111 104.928 209.435 104.778 209.723 104.586C210.011 104.394 210.269 104.172 210.497 103.92C210.737 103.668 210.953 103.404 211.145 103.128V105H212.531ZM211.199 100.338C211.199 100.878 211.103 101.376 210.911 101.832C210.731 102.276 210.479 102.654 210.155 102.966C209.843 103.278 209.483 103.524 209.075 103.704C208.679 103.872 208.265 103.956 207.833 103.956C207.389 103.956 206.969 103.872 206.573 103.704C206.177 103.536 205.829 103.296 205.529 102.984C205.229 102.66 204.989 102.276 204.809 101.832C204.641 101.388 204.557 100.89 204.557 100.338C204.557 99.774 204.641 99.27 204.809 98.826C204.989 98.37 205.223 97.992 205.511 97.692C205.811 97.38 206.159 97.146 206.555 96.99C206.951 96.822 207.377 96.738 207.833 96.738C208.265 96.738 208.679 96.828 209.075 97.008C209.483 97.176 209.843 97.416 210.155 97.728C210.479 98.04 210.731 98.418 210.911 98.862C211.103 99.306 211.199 99.798 211.199 100.338ZM217.14 105V91.86H215.754V105H217.14ZM221.185 100.86H228.565C228.577 100.776 228.583 100.698 228.583 100.626C228.583 100.554 228.583 100.488 228.583 100.428C228.583 99.744 228.487 99.102 228.295 98.502C228.103 97.902 227.821 97.38 227.449 96.936C227.077 96.492 226.621 96.144 226.081 95.892C225.541 95.628 224.929 95.496 224.245 95.496C223.597 95.496 222.997 95.622 222.445 95.874C221.905 96.126 221.437 96.474 221.041 96.918C220.645 97.35 220.333 97.866 220.105 98.466C219.889 99.054 219.781 99.684 219.781 100.356C219.781 101.076 219.901 101.736 220.141 102.336C220.393 102.936 220.729 103.452 221.149 103.884C221.569 104.304 222.061 104.634 222.625 104.874C223.189 105.102 223.789 105.216 224.425 105.216C225.313 105.216 226.057 105.06 226.657 104.748C227.257 104.424 227.791 103.998 228.259 103.47L227.395 102.696C227.011 103.092 226.585 103.41 226.117 103.65C225.661 103.89 225.109 104.01 224.461 104.01C224.053 104.01 223.663 103.944 223.291 103.812C222.919 103.668 222.583 103.464 222.283 103.2C221.983 102.924 221.737 102.594 221.545 102.21C221.353 101.814 221.233 101.364 221.185 100.86ZM221.185 99.834C221.233 99.378 221.341 98.958 221.509 98.574C221.677 98.19 221.893 97.86 222.157 97.584C222.421 97.296 222.727 97.074 223.075 96.918C223.423 96.75 223.801 96.666 224.209 96.666C224.677 96.666 225.085 96.756 225.433 96.936C225.793 97.104 226.093 97.332 226.333 97.62C226.585 97.908 226.777 98.244 226.909 98.628C227.053 99.012 227.143 99.414 227.179 99.834H221.185ZM237.917 105V91.86H236.531V105H237.917ZM242.754 93.66V92.13H241.17V93.66H242.754ZM242.646 105V95.694H241.26V105H242.646ZM247.752 95.73V94.974C247.752 93.654 248.292 92.994 249.372 92.994C249.612 92.994 249.834 93.018 250.038 93.066C250.242 93.102 250.47 93.156 250.722 93.228V92.022C250.494 91.938 250.26 91.878 250.02 91.842C249.792 91.806 249.516 91.788 249.192 91.788C248.292 91.788 247.596 92.052 247.104 92.58C246.624 93.108 246.384 93.882 246.384 94.902V95.712H245.106V96.918H246.384V105H247.77V96.918H250.704V95.73H247.752ZM253.124 100.86H260.504C260.516 100.776 260.522 100.698 260.522 100.626C260.522 100.554 260.522 100.488 260.522 100.428C260.522 99.744 260.426 99.102 260.234 98.502C260.042 97.902 259.76 97.38 259.388 96.936C259.016 96.492 258.56 96.144 258.02 95.892C257.48 95.628 256.868 95.496 256.184 95.496C255.536 95.496 254.936 95.622 254.384 95.874C253.844 96.126 253.376 96.474 252.98 96.918C252.584 97.35 252.272 97.866 252.044 98.466C251.828 99.054 251.72 99.684 251.72 100.356C251.72 101.076 251.84 101.736 252.08 102.336C252.332 102.936 252.668 103.452 253.088 103.884C253.508 104.304 254 104.634 254.564 104.874C255.128 105.102 255.728 105.216 256.364 105.216C257.252 105.216 257.996 105.06 258.596 104.748C259.196 104.424 259.73 103.998 260.198 103.47L259.334 102.696C258.95 103.092 258.524 103.41 258.056 103.65C257.6 103.89 257.048 104.01 256.4 104.01C255.992 104.01 255.602 103.944 255.23 103.812C254.858 103.668 254.522 103.464 254.222 103.2C253.922 102.924 253.676 102.594 253.484 102.21C253.292 101.814 253.172 101.364 253.124 100.86ZM253.124 99.834C253.172 99.378 253.28 98.958 253.448 98.574C253.616 98.19 253.832 97.86 254.096 97.584C254.36 97.296 254.666 97.074 255.014 96.918C255.362 96.75 255.74 96.666 256.148 96.666C256.616 96.666 257.024 96.756 257.372 96.936C257.732 97.104 258.032 97.332 258.272 97.62C258.524 97.908 258.716 98.244 258.848 98.628C258.992 99.012 259.082 99.414 259.118 99.834H253.124ZM277.471 100.338C277.471 99.678 277.351 99.054 277.111 98.466C276.871 97.878 276.535 97.368 276.103 96.936C275.671 96.492 275.155 96.144 274.555 95.892C273.967 95.628 273.325 95.496 272.629 95.496C271.921 95.496 271.267 95.628 270.667 95.892C270.079 96.144 269.569 96.492 269.137 96.936C268.705 97.38 268.369 97.902 268.129 98.502C267.889 99.09 267.769 99.714 267.769 100.374C267.769 101.034 267.889 101.658 268.129 102.246C268.369 102.834 268.705 103.35 269.137 103.794C269.569 104.226 270.079 104.574 270.667 104.838C271.255 105.09 271.897 105.216 272.593 105.216C273.289 105.216 273.937 105.09 274.537 104.838C275.137 104.574 275.653 104.22 276.085 103.776C276.517 103.332 276.853 102.816 277.093 102.228C277.345 101.628 277.471 100.998 277.471 100.338ZM276.049 100.374C276.049 100.878 275.965 101.352 275.797 101.796C275.629 102.228 275.395 102.606 275.095 102.93C274.795 103.254 274.435 103.512 274.015 103.704C273.595 103.884 273.133 103.974 272.629 103.974C272.137 103.974 271.681 103.878 271.261 103.686C270.841 103.494 270.475 103.236 270.163 102.912C269.863 102.588 269.623 102.204 269.443 101.76C269.275 101.316 269.191 100.842 269.191 100.338C269.191 99.834 269.275 99.366 269.443 98.934C269.611 98.49 269.839 98.106 270.127 97.782C270.427 97.446 270.787 97.188 271.207 97.008C271.627 96.816 272.089 96.72 272.593 96.72C273.085 96.72 273.541 96.816 273.961 97.008C274.381 97.2 274.747 97.464 275.059 97.8C275.371 98.124 275.611 98.508 275.779 98.952C275.959 99.396 276.049 99.87 276.049 100.374ZM281.368 99.672C281.368 99.24 281.434 98.844 281.566 98.484C281.71 98.124 281.908 97.818 282.16 97.566C282.412 97.302 282.706 97.104 283.042 96.972C283.39 96.828 283.762 96.756 284.158 96.756C284.986 96.756 285.622 97.008 286.066 97.512C286.51 98.016 286.732 98.7 286.732 99.564V105H288.118V99.222C288.118 98.67 288.034 98.166 287.866 97.71C287.71 97.254 287.476 96.864 287.164 96.54C286.864 96.204 286.492 95.946 286.048 95.766C285.616 95.586 285.118 95.496 284.554 95.496C283.75 95.496 283.096 95.676 282.592 96.036C282.088 96.384 281.68 96.81 281.368 97.314V95.694H279.982V105H281.368V99.672ZM298.342 96.918H301.294V95.694H298.342V92.886H296.956V95.694H295.66V96.918H296.956V102.534C296.956 103.002 297.022 103.404 297.154 103.74C297.286 104.076 297.466 104.352 297.694 104.568C297.934 104.772 298.216 104.922 298.54 105.018C298.864 105.114 299.212 105.162 299.584 105.162C299.92 105.162 300.22 105.126 300.484 105.054C300.76 104.994 301.018 104.898 301.258 104.766V103.578C301.018 103.698 300.79 103.782 300.574 103.83C300.37 103.878 300.148 103.902 299.908 103.902C299.44 103.902 299.062 103.788 298.774 103.56C298.486 103.332 298.342 102.93 298.342 102.354V96.918ZM305.133 99.672C305.133 99.24 305.199 98.844 305.331 98.484C305.475 98.124 305.673 97.818 305.925 97.566C306.177 97.302 306.471 97.104 306.807 96.972C307.155 96.828 307.527 96.756 307.923 96.756C308.751 96.756 309.387 97.008 309.831 97.512C310.275 98.016 310.497 98.7 310.497 99.564V105H311.883V99.222C311.883 98.67 311.799 98.166 311.631 97.71C311.475 97.254 311.241 96.864 310.929 96.54C310.629 96.204 310.257 95.946 309.813 95.766C309.381 95.586 308.883 95.496 308.319 95.496C307.515 95.496 306.861 95.676 306.357 96.036C305.853 96.384 305.445 96.81 305.133 97.314V91.86H303.747V105H305.133V99.672ZM315.667 100.86H323.047C323.059 100.776 323.065 100.698 323.065 100.626C323.065 100.554 323.065 100.488 323.065 100.428C323.065 99.744 322.969 99.102 322.777 98.502C322.585 97.902 322.303 97.38 321.931 96.936C321.559 96.492 321.103 96.144 320.563 95.892C320.023 95.628 319.411 95.496 318.727 95.496C318.079 95.496 317.479 95.622 316.927 95.874C316.387 96.126 315.919 96.474 315.523 96.918C315.127 97.35 314.815 97.866 314.587 98.466C314.371 99.054 314.263 99.684 314.263 100.356C314.263 101.076 314.383 101.736 314.623 102.336C314.875 102.936 315.211 103.452 315.631 103.884C316.051 104.304 316.543 104.634 317.107 104.874C317.671 105.102 318.271 105.216 318.907 105.216C319.795 105.216 320.539 105.06 321.139 104.748C321.739 104.424 322.273 103.998 322.741 103.47L321.877 102.696C321.493 103.092 321.067 103.41 320.599 103.65C320.143 103.89 319.591 104.01 318.943 104.01C318.535 104.01 318.145 103.944 317.773 103.812C317.401 103.668 317.065 103.464 316.765 103.2C316.465 102.924 316.219 102.594 316.027 102.21C315.835 101.814 315.715 101.364 315.667 100.86ZM315.667 99.834C315.715 99.378 315.823 98.958 315.991 98.574C316.159 98.19 316.375 97.86 316.639 97.584C316.903 97.296 317.209 97.074 317.557 96.918C317.905 96.75 318.283 96.666 318.691 96.666C319.159 96.666 319.567 96.756 319.915 96.936C320.275 97.104 320.575 97.332 320.815 97.62C321.067 97.908 321.259 98.244 321.391 98.628C321.535 99.012 321.625 99.414 321.661 99.834H315.667ZM339.744 103.38V95.694H338.358V97.368C338.166 97.116 337.95 96.876 337.71 96.648C337.47 96.42 337.2 96.222 336.9 96.054C336.612 95.886 336.282 95.754 335.91 95.658C335.55 95.55 335.154 95.496 334.722 95.496C334.17 95.496 333.63 95.598 333.102 95.802C332.574 96.006 332.106 96.3 331.698 96.684C331.29 97.056 330.96 97.518 330.708 98.07C330.468 98.61 330.348 99.222 330.348 99.906C330.348 100.59 330.468 101.202 330.708 101.742C330.96 102.282 331.29 102.744 331.698 103.128C332.106 103.5 332.568 103.788 333.084 103.992C333.612 104.184 334.158 104.28 334.722 104.28C335.574 104.28 336.294 104.088 336.882 103.704C337.47 103.32 337.968 102.858 338.376 102.318V103.416C338.376 104.508 338.07 105.33 337.458 105.882C336.846 106.446 336.024 106.728 334.992 106.728C334.32 106.728 333.69 106.626 333.102 106.422C332.514 106.218 331.95 105.924 331.41 105.54L330.78 106.62C331.404 107.052 332.07 107.376 332.778 107.592C333.486 107.808 334.23 107.916 335.01 107.916C335.73 107.916 336.378 107.82 336.954 107.628C337.542 107.436 338.04 107.148 338.448 106.764C338.868 106.392 339.186 105.924 339.402 105.36C339.63 104.796 339.744 104.136 339.744 103.38ZM338.412 99.888C338.412 100.368 338.316 100.806 338.124 101.202C337.932 101.586 337.674 101.916 337.35 102.192C337.038 102.468 336.678 102.684 336.27 102.84C335.862 102.984 335.436 103.056 334.992 103.056C334.56 103.056 334.146 102.984 333.75 102.84C333.366 102.684 333.024 102.468 332.724 102.192C332.436 101.904 332.202 101.568 332.022 101.184C331.854 100.788 331.77 100.35 331.77 99.87C331.77 99.39 331.854 98.958 332.022 98.574C332.19 98.178 332.418 97.842 332.706 97.566C333.006 97.29 333.348 97.08 333.732 96.936C334.128 96.792 334.548 96.72 334.992 96.72C335.436 96.72 335.862 96.798 336.27 96.954C336.678 97.098 337.038 97.308 337.35 97.584C337.674 97.86 337.932 98.196 338.124 98.592C338.316 98.976 338.412 99.408 338.412 99.888ZM351.967 100.338C351.967 99.678 351.847 99.054 351.607 98.466C351.367 97.878 351.031 97.368 350.599 96.936C350.167 96.492 349.651 96.144 349.051 95.892C348.463 95.628 347.821 95.496 347.125 95.496C346.417 95.496 345.763 95.628 345.163 95.892C344.575 96.144 344.065 96.492 343.633 96.936C343.201 97.38 342.865 97.902 342.625 98.502C342.385 99.09 342.265 99.714 342.265 100.374C342.265 101.034 342.385 101.658 342.625 102.246C342.865 102.834 343.201 103.35 343.633 103.794C344.065 104.226 344.575 104.574 345.163 104.838C345.751 105.09 346.393 105.216 347.089 105.216C347.785 105.216 348.433 105.09 349.033 104.838C349.633 104.574 350.149 104.22 350.581 103.776C351.013 103.332 351.349 102.816 351.589 102.228C351.841 101.628 351.967 100.998 351.967 100.338ZM350.545 100.374C350.545 100.878 350.461 101.352 350.293 101.796C350.125 102.228 349.891 102.606 349.591 102.93C349.291 103.254 348.931 103.512 348.511 103.704C348.091 103.884 347.629 103.974 347.125 103.974C346.633 103.974 346.177 103.878 345.757 103.686C345.337 103.494 344.971 103.236 344.659 102.912C344.359 102.588 344.119 102.204 343.939 101.76C343.771 101.316 343.687 100.842 343.687 100.338C343.687 99.834 343.771 99.366 343.939 98.934C344.107 98.49 344.335 98.106 344.623 97.782C344.923 97.446 345.283 97.188 345.703 97.008C346.123 96.816 346.585 96.72 347.089 96.72C347.581 96.72 348.037 96.816 348.457 97.008C348.877 97.2 349.243 97.464 349.555 97.8C349.867 98.124 350.107 98.508 350.275 98.952C350.455 99.396 350.545 99.87 350.545 100.374ZM355.62 105V103.11H353.964V105H355.62Z" fill="#191919"/>
<path d="M60.41 76V63.4H57.638V76H60.41ZM77.9949 76V69.718C77.9949 68.554 77.7069 67.672 77.1309 67.072C76.5549 66.472 75.7569 66.172 74.7369 66.172C74.0769 66.172 73.4889 66.304 72.9729 66.568C72.4569 66.82 71.9889 67.198 71.5689 67.702C71.3169 67.21 70.9569 66.832 70.4889 66.568C70.0329 66.304 69.4869 66.172 68.8509 66.172C68.5029 66.172 68.1849 66.214 67.8969 66.298C67.6209 66.382 67.3689 66.496 67.1409 66.64C66.9129 66.784 66.7029 66.952 66.5109 67.144C66.3309 67.324 66.1629 67.516 66.0069 67.72V66.352H63.2709V76H66.0069V70.618C66.0069 69.97 66.1509 69.484 66.4389 69.16C66.7389 68.824 67.1469 68.656 67.6629 68.656C68.1789 68.656 68.5749 68.824 68.8509 69.16C69.1269 69.484 69.2649 69.97 69.2649 70.618V76H72.0009V70.618C72.0009 69.97 72.1449 69.484 72.4329 69.16C72.7329 68.824 73.1409 68.656 73.6569 68.656C74.1729 68.656 74.5689 68.824 74.8449 69.16C75.1209 69.484 75.2589 69.97 75.2589 70.618V76H77.9949ZM90.5084 71.194V71.158C90.5084 70.354 90.3824 69.646 90.1304 69.034C89.8904 68.41 89.5664 67.888 89.1584 67.468C88.7504 67.036 88.2824 66.712 87.7544 66.496C87.2264 66.28 86.6804 66.172 86.1164 66.172C85.3964 66.172 84.7964 66.322 84.3164 66.622C83.8484 66.91 83.4464 67.282 83.1104 67.738V66.352H80.3744V78.88H83.1104V74.74C83.4344 75.124 83.8304 75.46 84.2984 75.748C84.7784 76.036 85.3844 76.18 86.1164 76.18C86.6924 76.18 87.2444 76.072 87.7724 75.856C88.3004 75.64 88.7624 75.322 89.1584 74.902C89.5664 74.47 89.8904 73.948 90.1304 73.336C90.3824 72.712 90.5084 71.998 90.5084 71.194ZM87.7724 71.194C87.7724 71.602 87.7064 71.968 87.5744 72.292C87.4544 72.616 87.2864 72.898 87.0704 73.138C86.8544 73.366 86.6024 73.546 86.3144 73.678C86.0384 73.798 85.7384 73.858 85.4144 73.858C85.0904 73.858 84.7844 73.798 84.4964 73.678C84.2204 73.546 83.9744 73.366 83.7584 73.138C83.5544 72.898 83.3864 72.616 83.2544 72.292C83.1344 71.956 83.0744 71.59 83.0744 71.194V71.158C83.0744 70.762 83.1344 70.402 83.2544 70.078C83.3864 69.742 83.5544 69.46 83.7584 69.232C83.9744 68.992 84.2204 68.812 84.4964 68.692C84.7844 68.56 85.0904 68.494 85.4144 68.494C85.7384 68.494 86.0384 68.56 86.3144 68.692C86.6024 68.812 86.8544 68.992 87.0704 69.232C87.2864 69.46 87.4544 69.742 87.5744 70.078C87.7064 70.402 87.7724 70.762 87.7724 71.158V71.194ZM100.819 76V70.402C100.819 69.094 100.477 68.074 99.7929 67.342C99.1089 66.61 98.0169 66.244 96.5169 66.244C95.7009 66.244 95.0049 66.316 94.4289 66.46C93.8529 66.604 93.3009 66.79 92.7729 67.018L93.4569 69.106C93.9009 68.938 94.3209 68.812 94.7169 68.728C95.1249 68.632 95.5929 68.584 96.1209 68.584C96.8049 68.584 97.3209 68.734 97.6689 69.034C98.0169 69.334 98.1909 69.772 98.1909 70.348V70.51C97.8429 70.39 97.4829 70.294 97.1109 70.222C96.7509 70.15 96.3249 70.114 95.8329 70.114C95.2569 70.114 94.7289 70.18 94.2489 70.312C93.7809 70.432 93.3729 70.618 93.0249 70.87C92.6889 71.122 92.4249 71.44 92.2329 71.824C92.0409 72.208 91.9449 72.664 91.9449 73.192V73.228C91.9449 73.708 92.0289 74.134 92.1969 74.506C92.3769 74.866 92.6169 75.172 92.9169 75.424C93.2169 75.676 93.5649 75.868 93.9609 76C94.3689 76.12 94.8009 76.18 95.2569 76.18C95.9289 76.18 96.4989 76.072 96.9669 75.856C97.4349 75.628 97.8369 75.328 98.1729 74.956V76H100.819ZM98.2269 72.598C98.2269 73.102 98.0289 73.51 97.6329 73.822C97.2489 74.134 96.7329 74.29 96.0849 74.29C95.6409 74.29 95.2809 74.188 95.0049 73.984C94.7289 73.78 94.5909 73.492 94.5909 73.12V73.084C94.5909 72.652 94.7589 72.322 95.0949 72.094C95.4309 71.866 95.8929 71.752 96.4809 71.752C96.8169 71.752 97.1289 71.788 97.4169 71.86C97.7169 71.92 97.9869 72.004 98.2269 72.112V72.598ZM111.669 74.452L110.067 72.832C109.731 73.144 109.389 73.396 109.041 73.588C108.705 73.768 108.309 73.858 107.853 73.858C107.481 73.858 107.145 73.792 106.845 73.66C106.545 73.516 106.287 73.324 106.071 73.084C105.855 72.844 105.687 72.562 105.567 72.238C105.459 71.914 105.405 71.566 105.405 71.194V71.158C105.405 70.798 105.459 70.462 105.567 70.15C105.687 69.826 105.849 69.544 106.053 69.304C106.269 69.064 106.515 68.878 106.791 68.746C107.079 68.602 107.397 68.53 107.745 68.53C108.237 68.53 108.645 68.626 108.969 68.818C109.305 69.01 109.629 69.268 109.941 69.592L111.615 67.792C111.159 67.288 110.631 66.892 110.031 66.604C109.431 66.316 108.675 66.172 107.763 66.172C107.019 66.172 106.335 66.304 105.711 66.568C105.099 66.832 104.571 67.192 104.127 67.648C103.683 68.104 103.335 68.638 103.083 69.25C102.831 69.862 102.705 70.51 102.705 71.194V71.23C102.705 71.914 102.831 72.562 103.083 73.174C103.335 73.774 103.683 74.302 104.127 74.758C104.571 75.202 105.099 75.556 105.711 75.82C106.335 76.084 107.007 76.216 107.727 76.216C108.687 76.216 109.467 76.054 110.067 75.73C110.667 75.394 111.201 74.968 111.669 74.452ZM118.874 75.604V73.408C118.454 73.636 118.004 73.75 117.524 73.75C116.936 73.75 116.642 73.438 116.642 72.814V68.692H118.91V66.352H116.642V63.886H113.906V66.352H112.754V68.692H113.906V73.264C113.906 73.828 113.972 74.296 114.104 74.668C114.248 75.028 114.44 75.322 114.68 75.55C114.932 75.778 115.226 75.934 115.562 76.018C115.91 76.114 116.294 76.162 116.714 76.162C117.17 76.162 117.572 76.108 117.92 76C118.268 75.904 118.586 75.772 118.874 75.604ZM132.138 69.034V66.172C131.322 66.136 130.674 66.316 130.194 66.712C129.714 67.108 129.336 67.636 129.06 68.296V66.352H126.324V76H129.06V72.436C129.06 71.272 129.318 70.414 129.834 69.862C130.362 69.31 131.082 69.034 131.994 69.034H132.138ZM142.847 71.446V71.41C142.847 70.726 142.751 70.072 142.559 69.448C142.379 68.812 142.091 68.254 141.695 67.774C141.311 67.282 140.825 66.892 140.237 66.604C139.649 66.316 138.953 66.172 138.149 66.172C137.441 66.172 136.793 66.304 136.205 66.568C135.629 66.832 135.131 67.192 134.711 67.648C134.291 68.104 133.961 68.638 133.721 69.25C133.493 69.862 133.379 70.51 133.379 71.194V71.23C133.379 71.974 133.505 72.652 133.757 73.264C134.009 73.864 134.357 74.386 134.801 74.83C135.257 75.274 135.791 75.616 136.403 75.856C137.027 76.096 137.699 76.216 138.419 76.216C139.295 76.216 140.057 76.06 140.705 75.748C141.353 75.424 141.905 74.98 142.361 74.416L140.795 73.03C140.411 73.378 140.039 73.63 139.679 73.786C139.319 73.942 138.911 74.02 138.455 74.02C137.843 74.02 137.327 73.864 136.907 73.552C136.499 73.228 136.229 72.754 136.097 72.13H142.811C142.823 71.998 142.829 71.884 142.829 71.788C142.841 71.692 142.847 71.578 142.847 71.446ZM140.183 70.42H136.061C136.169 69.796 136.397 69.298 136.745 68.926C137.105 68.554 137.573 68.368 138.149 68.368C138.725 68.368 139.187 68.56 139.535 68.944C139.883 69.316 140.099 69.808 140.183 70.42ZM151.96 73.066V73.03C151.96 72.586 151.87 72.208 151.69 71.896C151.51 71.584 151.282 71.32 151.006 71.104C150.73 70.888 150.418 70.708 150.07 70.564C149.722 70.408 149.38 70.276 149.044 70.168C148.78 70.084 148.528 70 148.288 69.916C148.06 69.832 147.856 69.748 147.676 69.664C147.496 69.568 147.352 69.472 147.244 69.376C147.136 69.268 147.082 69.148 147.082 69.016V68.98C147.082 68.788 147.166 68.632 147.334 68.512C147.502 68.38 147.754 68.314 148.09 68.314C148.438 68.314 148.84 68.398 149.296 68.566C149.752 68.722 150.22 68.938 150.7 69.214L151.744 67.324C151.216 66.976 150.634 66.706 149.998 66.514C149.374 66.31 148.756 66.208 148.144 66.208C147.652 66.208 147.19 66.274 146.758 66.406C146.338 66.538 145.966 66.736 145.642 67C145.33 67.264 145.078 67.588 144.886 67.972C144.706 68.344 144.616 68.776 144.616 69.268V69.304C144.616 69.772 144.7 70.168 144.868 70.492C145.048 70.816 145.276 71.092 145.552 71.32C145.828 71.536 146.134 71.716 146.47 71.86C146.818 71.992 147.16 72.106 147.496 72.202C147.76 72.286 148.012 72.364 148.252 72.436C148.492 72.508 148.702 72.586 148.882 72.67C149.074 72.742 149.224 72.832 149.332 72.94C149.44 73.048 149.494 73.174 149.494 73.318V73.354C149.494 73.57 149.398 73.744 149.206 73.876C149.026 74.008 148.738 74.074 148.342 74.074C147.886 74.074 147.394 73.978 146.866 73.786C146.35 73.594 145.828 73.306 145.3 72.922L144.13 74.722C144.778 75.226 145.456 75.598 146.164 75.838C146.884 76.066 147.586 76.18 148.27 76.18C148.786 76.18 149.266 76.12 149.71 76C150.166 75.868 150.562 75.676 150.898 75.424C151.234 75.172 151.492 74.854 151.672 74.47C151.864 74.074 151.96 73.606 151.96 73.066ZM156.855 65.29V62.86H153.975V65.29H156.855ZM156.783 76V66.352H154.047V76H156.783ZM166.427 73.066V73.03C166.427 72.586 166.337 72.208 166.157 71.896C165.977 71.584 165.749 71.32 165.473 71.104C165.197 70.888 164.885 70.708 164.537 70.564C164.189 70.408 163.847 70.276 163.511 70.168C163.247 70.084 162.995 70 162.755 69.916C162.527 69.832 162.323 69.748 162.143 69.664C161.963 69.568 161.819 69.472 161.711 69.376C161.603 69.268 161.549 69.148 161.549 69.016V68.98C161.549 68.788 161.633 68.632 161.801 68.512C161.969 68.38 162.221 68.314 162.557 68.314C162.905 68.314 163.307 68.398 163.763 68.566C164.219 68.722 164.687 68.938 165.167 69.214L166.211 67.324C165.683 66.976 165.101 66.706 164.465 66.514C163.841 66.31 163.223 66.208 162.611 66.208C162.119 66.208 161.657 66.274 161.225 66.406C160.805 66.538 160.433 66.736 160.109 67C159.797 67.264 159.545 67.588 159.353 67.972C159.173 68.344 159.083 68.776 159.083 69.268V69.304C159.083 69.772 159.167 70.168 159.335 70.492C159.515 70.816 159.743 71.092 160.019 71.32C160.295 71.536 160.601 71.716 160.937 71.86C161.285 71.992 161.627 72.106 161.963 72.202C162.227 72.286 162.479 72.364 162.719 72.436C162.959 72.508 163.169 72.586 163.349 72.67C163.541 72.742 163.691 72.832 163.799 72.94C163.907 73.048 163.961 73.174 163.961 73.318V73.354C163.961 73.57 163.865 73.744 163.673 73.876C163.493 74.008 163.205 74.074 162.809 74.074C162.353 74.074 161.861 73.978 161.333 73.786C160.817 73.594 160.295 73.306 159.767 72.922L158.597 74.722C159.245 75.226 159.923 75.598 160.631 75.838C161.351 76.066 162.053 76.18 162.737 76.18C163.253 76.18 163.733 76.12 164.177 76C164.633 75.868 165.029 75.676 165.365 75.424C165.701 75.172 165.959 74.854 166.139 74.47C166.331 74.074 166.427 73.606 166.427 73.066ZM173.806 75.604V73.408C173.386 73.636 172.936 73.75 172.456 73.75C171.868 73.75 171.574 73.438 171.574 72.814V68.692H173.842V66.352H171.574V63.886H168.838V66.352H167.686V68.692H168.838V73.264C168.838 73.828 168.904 74.296 169.036 74.668C169.18 75.028 169.372 75.322 169.612 75.55C169.864 75.778 170.158 75.934 170.494 76.018C170.842 76.114 171.226 76.162 171.646 76.162C172.102 76.162 172.504 76.108 172.852 76C173.2 75.904 173.518 75.772 173.806 75.604ZM184.157 76V70.402C184.157 69.094 183.815 68.074 183.131 67.342C182.447 66.61 181.355 66.244 179.855 66.244C179.039 66.244 178.343 66.316 177.767 66.46C177.191 66.604 176.639 66.79 176.111 67.018L176.795 69.106C177.239 68.938 177.659 68.812 178.055 68.728C178.463 68.632 178.931 68.584 179.459 68.584C180.143 68.584 180.659 68.734 181.007 69.034C181.355 69.334 181.529 69.772 181.529 70.348V70.51C181.181 70.39 180.821 70.294 180.449 70.222C180.089 70.15 179.663 70.114 179.171 70.114C178.595 70.114 178.067 70.18 177.587 70.312C177.119 70.432 176.711 70.618 176.363 70.87C176.027 71.122 175.763 71.44 175.571 71.824C175.379 72.208 175.283 72.664 175.283 73.192V73.228C175.283 73.708 175.367 74.134 175.535 74.506C175.715 74.866 175.955 75.172 176.255 75.424C176.555 75.676 176.903 75.868 177.299 76C177.707 76.12 178.139 76.18 178.595 76.18C179.267 76.18 179.837 76.072 180.305 75.856C180.773 75.628 181.175 75.328 181.511 74.956V76H184.157ZM181.565 72.598C181.565 73.102 181.367 73.51 180.971 73.822C180.587 74.134 180.071 74.29 179.423 74.29C178.979 74.29 178.619 74.188 178.343 73.984C178.067 73.78 177.929 73.492 177.929 73.12V73.084C177.929 72.652 178.097 72.322 178.433 72.094C178.769 71.866 179.231 71.752 179.819 71.752C180.155 71.752 180.467 71.788 180.755 71.86C181.055 71.92 181.325 72.004 181.565 72.112V72.598ZM195.349 76V69.754C195.349 68.638 195.061 67.762 194.485 67.126C193.921 66.49 193.117 66.172 192.073 66.172C191.725 66.172 191.413 66.214 191.137 66.298C190.861 66.382 190.609 66.496 190.381 66.64C190.153 66.784 189.943 66.952 189.751 67.144C189.571 67.324 189.403 67.516 189.247 67.72V66.352H186.511V76H189.247V70.618C189.247 69.97 189.397 69.484 189.697 69.16C190.009 68.824 190.429 68.656 190.957 68.656C191.485 68.656 191.893 68.824 192.181 69.16C192.469 69.484 192.613 69.97 192.613 70.618V76H195.349ZM203.144 75.604V73.408C202.724 73.636 202.274 73.75 201.794 73.75C201.206 73.75 200.912 73.438 200.912 72.814V68.692H203.18V66.352H200.912V63.886H198.176V66.352H197.024V68.692H198.176V73.264C198.176 73.828 198.242 74.296 198.374 74.668C198.518 75.028 198.71 75.322 198.95 75.55C199.202 75.778 199.496 75.934 199.832 76.018C200.18 76.114 200.564 76.162 200.984 76.162C201.44 76.162 201.842 76.108 202.19 76C202.538 75.904 202.856 75.772 203.144 75.604Z" fill="#191919"/>
<defs>
<filter id="filter0_d" x="0" y="0" width="413" height="170" filterUnits="userSpaceOnUse" color-interpolation-filters="sRGB">
<feFlood flood-opacity="0" result="BackgroundImageFix"/>
<feColorMatrix in="SourceAlpha" type="matrix" values="0 0 0 0 0 0 0 0 0 0 0 0 0 0 0 0 0 0 127 0"/>
<feOffset/>
<feGaussianBlur stdDeviation="16"/>
<feColorMatrix type="matrix" values="0 0 0 0 0 0 0 0 0 0 0 0 0 0 0 0 0 0 0.1 0"/>
<feBlend mode="normal" in2="BackgroundImageFix" result="effect1_dropShadow"/>
<feBlend mode="normal" in="SourceGraphic" in2="effect1_dropShadow" result="shape"/>
</filter>
</defs>
</svg>
